Coordinates
version=1
nRows=28
nColumns=23
inDegrees=yes

Units are S.I. units (second, meters, Newtons, ...)
If the header above contains a line with 'inDegrees', this indicates whether rotational values are in degrees (yes) or radians (no).

endheader
time	pelvis_tilt	pelvis_list	pelvis_rotation	pelvis_tx	pelvis_ty	pelvis_tz	hip_flexion_r	hip_adduction_r	hip_rotation_r	knee_angle_r	knee_angle_r_beta	ankle_angle_r	subtalar_angle_r	mtp_angle_r	hip_flexion_l	hip_adduction_l	hip_rotation_l	knee_angle_l	knee_angle_l_beta	ankle_angle_l	subtalar_angle_l	mtp_angle_l
     22.50000000	     -2.34022240	    -11.54786621	    -14.08370769	      2.11375888	      0.97714996	      1.01969249	     21.47784154	     16.28817132	     -5.54467594	     49.66346199	      0.86679093	     25.55419271	      4.56456647	      0.00000000	     22.71256962	    -16.63926246	     -5.41181168	    129.06676112	      2.25263994	    -11.22002884	    -13.19462098	      0.00000000
     22.50666667	     -2.49499824	    -11.58610430	    -13.77711685	      2.11187595	      0.97656218	      1.02002790	     19.69442364	     16.13042282	     -4.95111154	     49.57026375	      0.86516431	     26.96617676	      4.76358728	      0.00000000	     26.28446907	    -17.24374544	     -3.60982324	    129.81239601	      2.26565372	    -10.45718618	    -12.41186129	      0.00000000
     22.51333333	     -2.37323497	    -11.51499870	    -13.26739650	      2.11064844	      0.97716453	      1.02010780	     17.39828978	     15.68742625	     -4.51160970	     49.02885379	      0.85571493	     27.94057463	      5.11694573	      0.00000000	     29.48505620	    -17.44491779	     -1.92776464	    130.00186589	      2.26896059	     -9.75206861	    -11.94439508	      0.00000000
     22.52000000	     -2.13874992	    -11.25307271	    -12.62581712	      2.10992326	      0.97861365	      1.02008315	     14.83487592	     14.99428814	     -4.13441884	     48.12028175	      0.83985735	     28.52952904	      5.44768305	      0.00000000	     32.44691603	    -17.21295426	     -0.47396777	    129.69401583	      2.26358760	     -9.03285459	    -11.75943650	      0.00000000
     22.52666667	     -1.89932308	    -10.87268183	    -11.87125878	      2.10977906	      0.98076161	      1.02005694	     12.10298120	     14.15839151	     -3.91520686	     46.82609872	      0.81726960	     28.77424442	      5.88072427	      0.00000000	     35.22552666	    -16.69196669	      0.77163476	    128.94096966	      2.25044446	     -8.30679355	    -11.72061028	      0.00000000
     22.53333333	     -1.59160098	    -10.37725770	    -10.98175943	      2.11015280	      0.98353119	      1.02000829	      9.17127789	     13.19457214	     -3.89828410	     45.20647374	      0.78900181	     28.82517047	      6.44369688	      0.00000000	     37.71003194	    -15.87030354	      1.78789789	    127.77335740	      2.23006578	     -7.60680080	    -11.91345305	      0.00000000
     22.54000000	     -1.26237122	     -9.71778918	     -9.99077456	      2.11106993	      0.98680532	      1.01988448	      6.11832905	     12.09347307	     -4.05742450	     43.30777621	      0.75586329	     28.67647744	      7.09280673	      0.00000000	     39.91812265	    -14.73920461	      2.50503519	    126.23380721	      2.20319556	     -6.94190332	    -12.40495472	      0.00000000
     22.54666667	     -0.70771429	     -8.81393781	     -9.04859859	      2.11260497	      0.99092500	      1.01991291	      2.74557017	     10.71018917	     -4.41517997	     41.20088460	      0.71909109	     28.31663298	      8.33499840	      0.00000000	     41.45488546	    -13.34069142	      2.67868673	    124.22732491	      2.16817584	     -6.40484575	    -13.25063224	      0.00000000
     22.55333333	     -0.86817030	     -7.95972168	     -7.99275661	      2.11434281	      0.99436777	      1.01992465	      0.10635419	      9.69449619	     -4.84601168	     38.89223186	      0.67879750	     27.26948626	      8.64150861	      0.00000000	     43.71552589	    -11.88968726	      3.01761014	    122.09000490	      2.13087257	     -5.76362762	    -14.01298155	      0.00000000
     22.56000000	     -0.39239283	     -6.97335091	     -6.96449887	      2.11670597	      0.99912148	      1.02011621	     -3.36897103	      8.54646922	     -5.30439936	     36.19618763	      0.63174265	     25.55316450	      9.07156768	      0.00000000	     44.79973970	    -10.35128867	      2.84488717	    119.49463138	      2.08557476	     -5.49328316	    -15.37290811	      0.00000000
     22.56666667	     -0.35324045	     -5.98887207	     -5.91619234	      2.11938173	      1.00354178	      1.02034703	     -6.37819852	      7.60851945	     -5.88797309	     33.36955377	      0.58240858	     22.94793373	      9.02398168	      0.00000000	     46.17721623	     -8.80339304	      2.66597849	    116.71623444	      2.03708258	     -5.12529300	    -16.56669305	      0.00000000
     22.57333333	     -0.38948495	     -5.05547682	     -4.92508362	      2.12238628	      1.00814999	      1.02075342	     -9.36578256	      6.93964509	     -6.21739418	     30.30229776	      0.52887487	     19.44612656	      8.14993517	      0.00000000	     47.36829465	     -7.37355789	      2.39474310	    113.70559759	      1.98453706	     -4.78862802	    -17.68892528	      0.00000000
     22.58000000	     -1.08569399	     -4.05971724	     -3.97026825	      2.12549621	      1.01179755	      1.02105167	    -11.35033144	      6.11604410	     -7.44716013	     27.77078284	      0.48469160	     15.58309821	      8.31904587	      0.00000000	     49.14577947	     -5.90749914	      2.04977471	    110.58247480	      1.93002828	     -4.36921824	    -18.51427408	      0.00000000
     22.58666667	     -0.73861607	     -3.04256127	     -2.95727167	      2.12907057	      1.01713561	      1.02139885	    -14.67757117	      5.50194449	     -8.15829655	     24.63202574	      0.42990995	     11.20227943	      7.23052393	      0.00000000	     49.36528695	     -4.38925700	      1.55584185	    107.05674470	      1.86849268	     -4.40097951	    -20.00635486	      0.00000000
     22.59333333	     -1.19440132	     -2.23941019	     -2.14371073	      2.13252613	      1.02148290	      1.02188448	    -16.90025725	      5.24634601	     -8.47242393	     21.86074757	      0.38154202	      6.07171753	      5.15351300	      0.00000000	     50.36832333	     -3.27184793	      1.11941385	    103.48959956	      1.80623425	     -4.11456010	    -20.63129894	      0.00000000
     22.60000000	     -1.65613229	     -1.36524727	     -1.34206291	      2.13596379	      1.02569863	      1.02219018	    -18.73760121	      4.73078912	     -9.77363880	     19.84879507	      0.34642683	      1.25540168	      4.33177022	      0.00000000	     51.18096692	     -2.06982631	      0.60473924	     99.73643911	      1.74072925	     -3.93477382	    -21.18786115	      0.00000000
     22.60666667	     -2.24495017	     -0.64619668	     -0.57199667	      2.13927345	      1.02973243	      1.02235943	    -20.18524574	      4.41379833	    -10.96212736	     18.28936561	      0.31920965	     -3.55978242	      2.98268987	      0.00000000	     51.97622636	     -1.01355446	      0.18921667	     95.85051032	      1.67290699	     -3.66954917	    -21.33060539	      0.00000000
     22.61333333	     -2.88871685	      0.01847730	      0.11523697	      2.14238831	      1.03359048	      1.02240505	    -21.13620816	      3.97271760	    -12.67801999	     17.66015390	      0.30822783	     -7.79419454	      2.35140612	      0.00000000	     52.65504160	     -0.04684636	     -0.23823204	     91.81192008	      1.60242030	     -3.37296591	    -21.14200100	      0.00000000
     22.62000000	     -3.51863187	      0.54111248	      0.72661925	      2.14515938	      1.03740027	      1.02226397	    -21.80804729	      3.65741250	    -13.97878704	     17.61263410	      0.30739846	    -11.65185443	      1.13616046	      0.00000000	     53.16659343	      0.76916730	     -0.59887902	     87.63430730	      1.52950720	     -2.98564710	    -20.53676601	      0.00000000
     22.62666667	     -4.37857309	      0.92489788	      1.32802094	      2.14761553	      1.04062893	      1.02182070	    -21.80229801	      3.29670433	    -15.51430232	     18.53125959	      0.32343149	    -14.65466974	      0.34507365	      0.00000000	     53.80013835	      1.50237015	     -0.86041732	     83.37227083	      1.45512063	     -2.51394816	    -19.51950999	      0.00000000
     22.63333333	     -4.92955715	      1.35125391	      1.83707561	      2.14970274	      1.04401682	      1.02118673	    -21.88060352	      2.82268147	    -16.66180673	     20.01698894	      0.34936236	    -16.90569281	     -0.54277814	      0.00000000	     53.90902027	      2.22138377	     -1.20567220	     78.94413115	      1.37783501	     -1.94190126	    -18.13305421	      0.00000000
     22.64000000	     -5.63218795	      1.61851091	      2.36669134	      2.15138629	      1.04684873	      1.02022696	    -21.54610870	      2.46496882	    -17.41160573	     22.05474253	      0.38492787	    -18.54841266	     -1.44983268	      0.00000000	     54.05919995	      2.88515395	     -1.39794525	     74.43372549	      1.29911358	     -1.50714739	    -16.52492166	      0.00000000
     22.64666667	     -6.11240146	      1.92614421	      2.74650594	      2.15272055	      1.04954013	      1.01926775	    -21.17561000	      1.93195317	    -17.89146894	     24.73201032	      0.43165501	    -19.15647766	     -1.74527033	      0.00000000	     53.81058485	      3.40967002	     -1.79054922	     69.86301027	      1.21933955	     -0.79102139	    -14.26887044	      0.00000000
     22.65333333	     -6.61859212	      2.10164891	      3.15346178	      2.15370425	      1.05182610	      1.01815494	    -20.63249632	      1.65648535	    -17.62998148	     27.62738295	      0.48218880	    -19.44245105	     -2.40677296	      0.00000000	     53.45875370	      3.89553321	     -2.05167454	     65.22834014	      1.13844930	     -0.36933591	    -11.97240055	      0.00000000
     22.66000000	     -7.04787235	      2.15556378	      3.58275228	      2.15435242	      1.05383188	      1.01700893	    -20.01181071	      1.66203047	    -16.73500979	     30.73074313	      0.53635265	    -19.38331312	     -3.32440515	      0.00000000	     52.89380070	      4.34333209	     -2.16700007	     60.55250017	      1.05684050	     -0.28212200	     -9.72965253	      0.00000000
     22.66666667	     -7.37456838	      2.12448179	      3.93828124	      2.15479098	      1.05557229	      1.01607117	    -19.31771181	      1.86801812	    -15.36440948	     34.09067775	      0.59499457	    -19.04083849	     -4.10958043	      0.00000000	     52.10594006	      4.63054977	     -2.32385907	     55.92814194	      0.97613022	     -0.27373690	     -7.15835287	      0.00000000
     22.67333333	     -7.55398259	      2.02696956	      4.14009325	      2.15506708	      1.05696029	      1.01551967	    -18.59104011	      2.20584110	    -13.66695077	     37.72765927	      0.65847187	    -18.69692414	     -4.83181279	      0.00000000	     51.10396799	      4.66423212	     -2.66839299	     51.48959768	      0.89866301	     -0.31293529	     -4.19521864	      0.00000000
     22.68000000	     -7.58564901	      1.76738255	      4.36249988	      2.15521181	      1.05806969	      1.01525384	    -17.88742006	      2.90892109	    -11.74100518	     41.48174977	      0.72399311	    -18.29892711	     -5.44179216	      0.00000000	     49.92531800	      4.54291563	     -2.97133747	     47.29644587	      0.82547870	     -0.38911348	     -0.85389262	      0.00000000
